<?xml version="1.0" standalone="no"?>
<!DOCTYPE svg PUBLIC "-//W3C//DTD SVG 20010904//EN"
 "http://www.w3.org/TR/2001/REC-SVG-20010904/DTD/svg10.dtd">
<svg version="1.0" xmlns="http://www.w3.org/2000/svg"
 width="1000.000000pt" height="1000.000000pt" viewBox="0 0 1000.000000 1000.000000"
 preserveAspectRatio="xMidYMid meet">
<metadata>
Created by potrace 1.14, written by Peter Selinger 2001-2017
</metadata>
<g transform="translate(0.000000,1000.000000) scale(0.100000,-0.100000)"
fill="#000000" stroke="none">
<path d="M2777 9204 c-1 -1 -45 -4 -97 -8 -124 -7 -165 -13 -285 -37 -111 -23
-300 -81 -357 -110 -21 -11 -38 -17 -38 -15 0 11 -226 -115 -320 -179 -109
-73 -128 -88 -213 -165 -368 -332 -591 -762 -654 -1265 -10 -76 -11 -4733 -1
-4835 14 -150 79 -417 128 -525 87 -194 118 -252 199 -375 120 -183 321 -390
503 -518 288 -203 621 -327 963 -359 103 -10 4707 -10 4800 -1 39 4 79 9 90
12 11 2 38 7 60 11 22 4 51 9 64 12 173 31 420 129 601 236 169 100 384 282
506 427 257 307 420 685 462 1070 9 87 9 4757 0 4840 -52 454 -258 879 -581
1202 -128 128 -368 299 -528 376 -167 81 -406 157 -554 178 -27 3 -59 8 -70
10 -75 14 -489 17 -2458 18 -1220 0 -2219 0 -2220 0z m5277 -1042 c48 -35 82
-97 91 -166 3 -27 8 -52 10 -56 2 -3 7 -33 10 -65 4 -33 9 -69 11 -80 27 -141
26 -680 -1 -850 -3 -16 -7 -46 -10 -65 -10 -85 -19 -133 -45 -260 -131 -624
-432 -1193 -860 -1620 -83 -84 -120 -118 -230 -215 -150 -131 -442 -321 -670
-435 -263 -132 -498 -221 -857 -326 -253 -73 -333 -95 -898 -244 -757 -199
-1058 -297 -1352 -442 -444 -217 -723 -504 -908 -931 -49 -113 -72 -182 -147
-442 -15 -51 -30 -79 -57 -106 -93 -93 -253 -68 -317 51 -16 30 -19 57 -19
200 1 91 4 201 8 245 13 143 17 190 22 220 3 17 7 48 10 70 3 22 10 63 16 90
5 28 12 66 15 85 6 42 25 124 64 280 139 547 427 1096 790 1505 45 51 234 240
285 285 266 236 614 457 960 609 66 29 136 59 155 68 69 30 448 152 565 182
901 226 1627 526 2134 881 115 80 104 72 226 173 407 335 657 751 681 1132 7
119 21 163 67 207 48 46 85 59 156 53 40 -3 65 -12 95 -33z"/>
<path d="M7723 6906 c-23 -29 -48 -65 -54 -80 -7 -14 -15 -26 -19 -26 -4 0
-10 -8 -12 -17 -3 -10 -47 -73 -97 -141 -110 -146 -316 -357 -458 -470 -277
-219 -532 -368 -928 -543 -210 -92 -531 -198 -890 -294 -992 -264 -1647 -555
-2135 -949 -266 -215 -402 -392 -578 -751 -38 -77 -80 -169 -94 -205 -14 -36
-29 -74 -33 -85 -25 -64 -53 -145 -49 -145 11 0 92 84 137 140 77 99 269 286
397 389 210 169 469 329 747 463 79 37 145 68 148 68 3 0 24 9 48 19 120 55
459 173 557 196 8 2 60 15 114 29 101 27 259 61 331 71 22 4 47 8 55 10 8 2
38 7 65 10 28 4 59 9 70 12 11 3 31 7 45 8 21 2 107 17 175 30 55 11 175 37
210 47 22 5 48 12 57 13 153 30 580 178 793 274 97 45 291 143 354 180 28 17
54 31 57 31 7 0 292 188 342 225 121 93 361 465 471 730 18 44 39 94 46 110
23 51 103 308 104 335 0 3 7 28 15 55 25 84 64 315 54 315 -2 0 -22 -24 -45
-54z"/>
</g>
</svg>
